<svg width="115" height="69" viewBox="0 0 115 69" fill="none" xmlns="http://www.w3.org/2000/svg">
<path d="M8.64 68.464C7.168 68.464 5.776 68.288 4.464 67.936C3.184 67.584 2.144 67.168 1.344 66.688C0.544 66.24 0.144 65.872 0.144 65.584C0.144 65.296 0.192 64.928 0.288 64.48C0.416 64.064 0.592 63.696 0.816 63.376C1.04 63.056 1.296 62.896 1.584 62.896C1.68 62.896 2.016 63.104 2.592 63.52C3.2 63.936 4 64.352 4.992 64.768C6.016 65.184 7.2 65.392 8.544 65.392C10.016 65.392 11.248 65.152 12.24 64.672C13.232 64.192 14.048 63.344 14.688 62.128C15.328 60.912 15.84 59.216 16.224 57.04C16.608 54.864 16.944 52.08 17.232 48.688C16.144 50.16 15.008 51.2 13.824 51.808C12.64 52.384 11.2 52.672 9.504 52.672C8.224 52.672 7.008 52.368 5.856 51.76C4.736 51.152 3.808 50.208 3.072 48.928C2.368 47.648 2.016 46 2.016 43.984C2.016 42.704 2.176 41.328 2.496 39.856C2.848 38.352 3.424 36.88 4.224 35.44C5.024 34 6.096 32.704 7.44 31.552C8.816 30.368 10.512 29.424 12.528 28.72C14.544 28.016 16.944 27.664 19.728 27.664C20.08 27.664 20.512 27.712 21.024 27.808C21.568 27.872 22.048 28.048 22.464 28.336C22.88 28.624 23.088 29.104 23.088 29.776L19.728 56.368C19.44 58.64 18.912 60.688 18.144 62.512C17.408 64.368 16.288 65.824 14.784 66.88C13.28 67.936 11.232 68.464 8.64 68.464ZM10.656 49.504C12.064 49.504 13.232 49.136 14.16 48.4C15.088 47.664 15.84 46.704 16.416 45.52C16.992 44.304 17.44 42.992 17.76 41.584C18.112 40.176 18.384 38.784 18.576 37.408L19.392 30.784C19.264 30.72 19.056 30.688 18.768 30.688C18.48 30.656 18.304 30.64 18.24 30.64C15.872 30.64 13.76 31.232 11.904 32.416C10.048 33.6 8.592 35.168 7.536 37.12C6.48 39.072 5.952 41.216 5.952 43.552C5.952 45.12 6.32 46.512 7.056 47.728C7.824 48.912 9.024 49.504 10.656 49.504ZM37.1239 52.672C35.0439 52.672 33.2999 52.176 31.8919 51.184C30.5159 50.192 29.4759 48.896 28.7719 47.296C28.0999 45.664 27.7479 43.92 27.7159 42.064C27.7159 40.432 27.9559 38.784 28.4359 37.12C28.9159 35.424 29.6679 33.872 30.6919 32.464C31.7159 31.024 33.0279 29.872 34.6279 29.008C36.2279 28.112 38.1479 27.664 40.3879 27.664C42.4999 27.664 44.2439 28.176 45.6199 29.2C47.0279 30.192 48.0679 31.504 48.7399 33.136C49.4439 34.768 49.7959 36.528 49.7959 38.416C49.7959 40.976 49.2679 43.344 48.2119 45.52C47.1879 47.664 45.7159 49.392 43.7959 50.704C41.9079 52.016 39.6839 52.672 37.1239 52.672ZM37.5559 49.696C39.2199 49.696 40.6919 49.2 41.9719 48.208C43.2519 47.184 44.2599 45.856 44.9959 44.224C45.7319 42.56 46.0999 40.768 46.0999 38.848C46.0999 36.512 45.6039 34.56 44.6119 32.992C43.6519 31.424 42.1319 30.64 40.0519 30.64C38.6119 30.64 37.3479 30.976 36.2599 31.648C35.2039 32.32 34.3239 33.2 33.6199 34.288C32.9159 35.376 32.3879 36.56 32.0359 37.84C31.7159 39.12 31.5559 40.368 31.5559 41.584C31.5559 43.92 32.0359 45.856 32.9959 47.392C33.9559 48.928 35.4759 49.696 37.5559 49.696Z" fill="#623CA7"/>
<path d="M64.0961 52.672C60.7361 52.672 58.1921 51.744 56.4641 49.888C54.7361 48.032 53.8721 45.424 53.8721 42.064C53.8721 39.6 54.2881 37.472 55.1201 35.68C55.9841 33.856 57.0881 32.352 58.4321 31.168C59.7761 29.984 61.2001 29.104 62.7041 28.528C64.2081 27.952 65.6321 27.664 66.9761 27.664C68.6721 27.664 70.0961 28.08 71.2481 28.912C72.4001 29.744 72.9761 30.96 72.9761 32.56C72.9761 34.448 72.2881 36.112 70.9121 37.552C69.5361 38.992 67.6961 40.112 65.3921 40.912C63.1201 41.712 60.5761 42.112 57.7601 42.112C57.7601 44.448 58.3041 46.304 59.3921 47.68C60.5121 49.024 62.1441 49.696 64.2881 49.696C65.4081 49.696 66.3841 49.488 67.2161 49.072C68.0801 48.624 68.7681 48.192 69.2801 47.776C69.8241 47.36 70.1281 47.152 70.1921 47.152C70.5761 47.152 70.8801 47.408 71.1041 47.92C71.3601 48.4 71.4881 48.864 71.4881 49.312C71.4881 49.632 71.1041 50.064 70.3361 50.608C69.5681 51.152 68.6081 51.632 67.4561 52.048C66.3361 52.464 65.2161 52.672 64.0961 52.672ZM57.9521 39.28C59.3601 39.28 60.7521 39.136 62.1281 38.848C63.5041 38.528 64.7361 38.096 65.8241 37.552C66.9441 37.008 67.8241 36.352 68.4641 35.584C69.1361 34.816 69.4721 33.968 69.4721 33.04C69.4721 32.208 69.2161 31.584 68.7041 31.168C68.1921 30.752 67.5521 30.544 66.7841 30.544C65.7921 30.544 64.6721 30.88 63.4241 31.552C62.1761 32.192 61.0241 33.152 59.9681 34.432C58.9441 35.712 58.2721 37.328 57.9521 39.28ZM81.4211 52.672C79.7571 52.672 78.3171 52.192 77.1011 51.232C75.8851 50.24 75.2771 48.768 75.2771 46.816C75.2771 45.248 75.7411 43.76 76.6691 42.352C77.6291 40.912 79.2451 39.696 81.5171 38.704C83.8211 37.712 86.9891 37.088 91.0211 36.832C91.1171 36.256 91.1811 35.712 91.2131 35.2C91.2451 34.656 91.2611 34.208 91.2611 33.856C91.2611 32.704 90.8291 31.92 89.9651 31.504C89.1011 31.088 88.0611 30.88 86.8451 30.88C85.6291 30.88 84.5571 31.04 83.6291 31.36C82.7011 31.648 81.9331 31.952 81.3251 32.272C80.7171 32.56 80.2691 32.704 79.9811 32.704C79.5331 32.704 79.1811 32.432 78.9251 31.888C78.7011 31.344 78.5891 30.864 78.5891 30.448C78.5891 30.16 78.8611 29.856 79.4051 29.536C79.9811 29.216 80.7011 28.912 81.5651 28.624C82.4611 28.336 83.3891 28.112 84.3491 27.952C85.3091 27.76 86.1891 27.664 86.9891 27.664C88.3331 27.664 89.6131 27.84 90.8291 28.192C92.0451 28.512 93.0371 29.072 93.8051 29.872C94.5731 30.672 94.9571 31.776 94.9571 33.184C94.9571 34.176 94.8131 35.488 94.5251 37.12C94.2371 38.72 93.9331 40.416 93.6131 42.208C93.3251 44 93.1811 45.696 93.1811 47.296C93.1811 48.384 93.2611 49.216 93.4211 49.792C93.6131 50.368 93.7091 50.88 93.7091 51.328C93.7091 51.616 93.5331 51.856 93.1811 52.048C92.8611 52.24 92.4771 52.384 92.0291 52.48C91.6131 52.608 91.2451 52.672 90.9251 52.672C90.6371 52.672 90.4131 52.432 90.2531 51.952C90.0931 51.472 89.9811 50.896 89.9171 50.224C89.8851 49.552 89.8691 48.928 89.8691 48.352V47.104C88.8771 49.024 87.5971 50.432 86.0291 51.328C84.4611 52.224 82.9251 52.672 81.4211 52.672ZM82.6691 49.504C83.7571 49.504 84.7331 49.216 85.5971 48.64C86.4611 48.032 87.2131 47.248 87.8531 46.288C88.5251 45.296 89.0691 44.224 89.4851 43.072C89.9011 41.92 90.2051 40.8 90.3971 39.712C87.5171 39.936 85.2451 40.352 83.5811 40.96C81.9491 41.536 80.7811 42.256 80.0771 43.12C79.4051 43.984 79.0691 44.976 79.0691 46.096C79.0691 47.024 79.3891 47.824 80.0291 48.496C80.6691 49.168 81.5491 49.504 82.6691 49.504ZM104.892 52.672C104.508 52.672 104.172 52.368 103.884 51.76C103.628 51.152 103.42 50.368 103.26 49.408C103.132 48.416 103.068 47.36 103.068 46.24C103.068 45.568 103.1 44.816 103.164 43.984C103.26 43.152 103.324 42.512 103.356 42.064L104.604 31.552H101.868C101.164 31.552 100.812 31.088 100.812 30.16C100.812 29.744 100.94 29.344 101.196 28.96C101.452 28.544 101.788 28.336 102.204 28.336H105.036L105.9 20.944C105.964 20.4 106.284 20 106.86 19.744C107.436 19.488 107.996 19.36 108.54 19.36C108.988 19.36 109.26 19.392 109.356 19.456C109.484 19.52 109.548 19.68 109.548 19.936L108.54 28.336H113.004C113.74 28.336 114.108 28.816 114.108 29.776C114.108 30.16 113.964 30.56 113.676 30.976C113.42 31.36 113.084 31.552 112.668 31.552H108.108L106.86 42.064C106.764 42.832 106.7 43.52 106.668 44.128C106.636 44.736 106.62 45.296 106.62 45.808C106.62 47.376 106.748 48.56 107.004 49.36C107.292 50.16 107.436 50.816 107.436 51.328C107.436 51.744 107.116 52.064 106.476 52.288C105.868 52.544 105.34 52.672 104.892 52.672Z" fill="#06CF90"/>
</svg>
